<?xml version="1.0" encoding="UTF-8"?>
<!DOCTYPE svg PUBLIC "-//W3C//DTD SVG 1.1//EN" "http://www.w3.org/Graphics/SVG/1.1/DTD/svg11.dtd">
<svg xmlns="http://www.w3.org/2000/svg" version="1.1" width="1840px" height="1188px" style="shape-rendering:geometricPrecision; text-rendering:geometricPrecision; image-rendering:optimizeQuality; fill-rule:evenodd; clip-rule:evenodd" xmlns:xlink="http://www.w3.org/1999/xlink">
<g><path style="opacity:0.991" fill="#500099" d="M 1354.5,196.5 C 1496.33,195.334 1638.33,195.167 1780.5,196C 1765.33,208.5 1750.17,221 1735,233.5C 1737.23,259.265 1739.07,285.099 1740.5,311C 1740.52,315.568 1740.02,320.068 1739,324.5C 1735.07,329.427 1730.74,329.761 1726,325.5C 1725.01,320.723 1724.51,315.889 1724.5,311C 1726.02,284.79 1728.02,258.623 1730.5,232.5C 1714.5,232.5 1698.5,232.5 1682.5,232.5C 1681.48,265.194 1679.98,297.86 1678,330.5C 1640.68,341.623 1603.51,353.289 1566.5,365.5C 1525.49,353.994 1484.65,341.994 1444,329.5C 1442.28,297.172 1440.78,264.839 1439.5,232.5C 1418.94,230.223 1398.61,226.723 1378.5,222C 1374.05,219.217 1369.88,216.05 1366,212.5C 1361.92,207.265 1358.08,201.931 1354.5,196.5 Z"/></g>
<g><path style="opacity:0.997" fill="#510099" d="M 989.5,257.5 C 991.716,258.203 993.549,259.536 995,261.5C 1224.76,555.928 1453.76,850.928 1682,1146.5C 1682.67,1147.5 1682.67,1148.5 1682,1149.5C 1625.09,1206.75 1567.92,1263.58 1510.5,1320C 1508.63,1320.71 1507.13,1320.21 1506,1318.5C 1361.38,1134.88 1216.38,951.546 1071,768.5C 1065.96,762.467 1060.63,756.8 1055,751.5C 1032.66,760.587 1010.49,770.087 988.5,780C 786.657,872.004 585.491,965.504 385,1060.5C 384.308,1059.97 383.808,1059.31 383.5,1058.5C 386.415,1053 389.581,1047.67 393,1042.5C 507.667,889.833 622.333,737.167 737,584.5C 797.333,505.5 857.667,426.5 918,347.5C 941.601,317.287 965.435,287.287 989.5,257.5 Z"/></g>
<g><path style="opacity:0.996" fill="#510099" d="M 1444.5,345.5 C 1484.91,355.31 1525.08,365.977 1565,377.5C 1600.44,366.347 1636.27,356.514 1672.5,348C 1674.77,347.242 1676.94,347.409 1679,348.5C 1680.5,457.952 1681,567.286 1680.5,676.5C 1679.93,824.831 1678.93,973.165 1677.5,1121.5C 1598.12,1020.29 1519.29,918.62 1441,816.5C 1440.5,693.46 1440.34,570.626 1440.5,448C 1441.33,423.906 1441.83,399.739 1442,375.5C 1442,365.365 1442.84,355.365 1444.5,345.5 Z"/></g>
<g><path style="opacity:0.997" fill="#510099" d="M 876.5,971.5 C 990.142,971.386 1103.81,971.553 1217.5,972C 1263.71,1029.88 1309.55,1088.05 1355,1146.5C 1356.19,1148.04 1356.52,1149.71 1356,1151.5C 1351.8,1153.68 1347.3,1154.84 1342.5,1155C 1324.85,1156.02 1307.18,1156.68 1289.5,1157C 994.5,1157.67 699.5,1157.67 404.5,1157C 534.833,1096 665.167,1035 795.5,974C 822.608,972.86 849.608,972.026 876.5,971.5 Z"/></g>
</svg>
